<svg width="48" height="48" viewBox="0 0 48 48" fill="none" xmlns="http://www.w3.org/2000/svg">
<circle cx="24" cy="24" r="24" fill="#FFD2A4"/>
<g clip-path="url(#clip0_182_4)">
<path d="M30.7796 13.0002C28.9476 13.0002 27.8474 14.1754 27.2471 15.1609C26.6469 14.1755 25.5466 13.0002 23.7147 13.0002C21.2848 13.0002 19.5377 15.021 19.5377 17.4793C19.5377 20.1475 21.6079 21.8759 24.7414 24.4922C26.6467 26.0828 26.8059 26.2438 27.2471 26.6211C27.7261 26.2238 27.8708 26.0186 30.0363 24.3531C32.3424 22.5794 34.9995 20.4053 34.9995 17.4793C34.9995 15.0506 33.2353 13.0002 30.7796 13.0002ZM29.2504 23.3313C28.6396 23.8012 27.9606 24.3234 27.2494 24.9195C26.6618 24.4163 26.1072 23.9533 25.5676 23.5027C22.6112 21.0344 20.8268 19.5445 20.8268 17.4793C20.8268 15.6607 22.0683 14.2893 23.7147 14.2893C25.4979 14.2893 26.3041 15.9785 26.568 16.7048L26.7222 17.1251H27.772L27.9262 16.7048C28.1901 15.9785 28.9963 14.2893 30.7795 14.2893C32.4504 14.2893 33.7104 15.6607 33.7104 17.4793C33.7104 19.8982 31.1455 21.8737 29.2504 23.3313Z" fill="#161722"/>
<path d="M24.7005 34.9106C25.0555 34.9698 25.418 34.9997 25.7778 34.9997C27.3281 34.9997 28.8328 34.4477 30.0153 33.4454L34.2807 29.8759C35.1217 29.1948 35.2434 27.9591 34.5498 27.1269C33.8726 26.3144 32.6912 26.1904 31.86 26.8446L29.0945 29.098C28.9073 29.2538 28.7038 29.387 28.4887 29.4958C28.5036 29.3991 28.5114 29.3 28.5114 29.1991C28.5114 28.133 27.644 27.2656 26.5778 27.2656H22.9777C22.5344 26.8489 21.449 25.9766 20.1327 25.9766C18.814 25.9766 17.6999 26.8544 17.2503 27.2656H13V33.7108H17.4586L24.7005 34.9106ZM15.5781 32.4217H14.289V28.5546H15.5781V32.4217ZM16.8671 28.5546H17.7926C18.4086 27.9081 19.2376 27.2656 20.1326 27.2656C21.0235 27.2656 21.8213 27.8972 22.4227 28.5546H26.5778C26.9332 28.5546 27.2223 28.8437 27.2223 29.1991C27.2223 29.5545 26.9332 29.8436 26.5778 29.8436H23.3552V31.1327H27.0329C28.084 31.1327 29.1079 30.7627 29.9163 30.091L32.6609 27.8546C32.9394 27.6383 33.3334 27.6807 33.5595 27.9521C33.7927 28.2319 33.7512 28.6476 33.4674 28.8757L29.1833 32.4607C28.2332 33.2668 27.0237 33.7107 25.7778 33.7107C25.4887 33.7107 25.1976 33.6866 24.9117 33.639L17.5646 32.4217H16.8671V28.5546Z" fill="#161722"/>
</g>
<defs>
<clipPath id="clip0_182_4">
<rect width="22" height="22" fill="white" transform="translate(13 13)"/>
</clipPath>
</defs>
</svg>
