<svg width="48" height="48" viewBox="0 0 48 48" fill="none" xmlns="http://www.w3.org/2000/svg">
<circle cx="24" cy="24" r="24" fill="#FFD2A4"/>
<path d="M24 20.7908C22.2303 20.7908 20.7906 22.2305 20.7906 24.0001C20.7906 25.7698 22.2303 27.2095 24 27.2095C25.7696 27.2095 27.2093 25.7698 27.2093 24.0001C27.2093 22.2305 25.7696 20.7908 24 20.7908ZM24 25.6861C23.0703 25.6861 22.314 24.9297 22.314 24.0001C22.314 23.0705 23.0704 22.3142 24 22.3142C24.9296 22.3142 25.6859 23.0705 25.6859 24.0001C25.6859 24.9297 24.9296 25.6861 24 25.6861Z" fill="#161722"/>
<path d="M18.1955 18.1956L17.1183 17.1184C15.2774 18.9593 14.2636 21.4033 14.2636 24.0002C14.2636 26.597 15.2774 29.041 17.1183 30.8819L18.1956 29.8047C16.6424 28.2515 15.787 26.1901 15.787 24.0002C15.787 21.8102 16.6424 19.7488 18.1955 18.1956Z" fill="#161722"/>
<path d="M15.8889 15.8889L14.8117 14.8118C12.3537 17.2697 11 20.5329 11 24.0001C11 27.4673 12.3537 30.7304 14.8117 33.1884L15.8889 32.1112C13.7187 29.9409 12.5234 27.0604 12.5234 24.0001C12.5234 20.9398 13.7187 18.0592 15.8889 15.8889Z" fill="#161722"/>
<path d="M33.1882 14.8118L32.111 15.889C34.2813 18.0592 35.4765 20.9398 35.4765 24.0001C35.4765 27.0604 34.2813 29.9409 32.1111 32.1112L33.1883 33.1884C35.6463 30.7304 36.9999 27.4673 36.9999 24.0001C36.9999 20.5329 35.6463 17.2697 33.1882 14.8118Z" fill="#161722"/>
<path d="M30.8818 17.1184L29.8046 18.1956C31.3577 19.7488 32.213 21.8102 32.213 24.0002C32.213 26.1901 31.3577 28.2515 29.8045 29.8047L30.8817 30.8819C32.7226 29.041 33.7365 26.597 33.7365 24.0002C33.7365 21.4033 32.7227 18.9593 30.8818 17.1184Z" fill="#161722"/>
<path d="M28.5751 19.4248L27.4979 20.502C28.434 21.4381 28.9494 22.6803 28.9494 23.9999C28.9494 25.3195 28.434 26.5618 27.4979 27.4979L28.5751 28.5751C29.7989 27.3513 30.4729 25.7265 30.4729 23.9999C30.4729 22.2734 29.799 20.6486 28.5751 19.4248Z" fill="#161722"/>
<path d="M20.5021 20.502L19.4249 19.4248C18.2011 20.6486 17.5271 22.2734 17.5271 23.9999C17.5271 25.7265 18.2011 27.3513 19.4248 28.5751L20.5021 27.4979C19.566 26.5618 19.0505 25.3195 19.0505 23.9999C19.0505 22.6803 19.5661 21.4381 20.5021 20.502Z" fill="#161722"/>
</svg>
