<svg width="48" height="48" viewBox="0 0 48 48" fill="none" xmlns="http://www.w3.org/2000/svg">
<circle cx="24" cy="24" r="24" fill="#FFD2A4"/>
<g clip-path="url(#clip0_182_2)">
<path d="M35.25 18.1875C34.772 18.201 34.3025 18.3172 33.8734 18.5281C32.9475 18.9911 32.4375 19.869 32.4375 21V23.767L31.5354 24.669C31.3573 23.4916 30.356 22.8113 30.312 22.782C30.2038 22.7098 30.074 22.6774 29.9446 22.6902C29.8152 22.7031 29.6942 22.7603 29.6023 22.8523L25.1023 27.3523C24.9968 27.4578 24.9375 27.6008 24.9375 27.75V35.25C24.9375 35.3992 24.9968 35.5423 25.1023 35.6477C25.2077 35.7532 25.3508 35.8125 25.5 35.8125C25.6492 35.8125 25.7923 35.7532 25.8977 35.6477C26.0032 35.5423 26.0625 35.3992 26.0625 35.25V27.983L30.0197 24.0258C30.2021 24.2344 30.3977 24.5389 30.4322 24.91C30.4807 25.4338 30.2015 26.0031 29.6025 26.6022L27.3525 28.8522C27.2484 28.958 27.1904 29.1006 27.191 29.249C27.1916 29.3974 27.2508 29.5395 27.3557 29.6445C27.4607 29.7494 27.6028 29.8086 27.7512 29.8092C27.8996 29.8098 28.0422 29.7518 28.148 29.6477L30.398 27.3977L33.398 24.3977C33.5034 24.2922 33.5625 24.1491 33.5625 24V21C33.5625 20.2999 33.8194 19.8253 34.348 19.5489C34.4567 19.4926 34.5703 19.4464 34.6875 19.4109V25.2961L31.0679 29.6397C30.9836 29.7408 30.9374 29.8683 30.9375 30V35.25C30.9375 35.3992 30.9968 35.5423 31.1023 35.6477C31.2077 35.7532 31.3508 35.8125 31.5 35.8125C31.6492 35.8125 31.7923 35.7532 31.8977 35.6477C32.0032 35.5423 32.0625 35.3992 32.0625 35.25V30.2037L35.6821 25.8601C35.7664 25.759 35.8125 25.6316 35.8125 25.5V18.75C35.8125 18.6008 35.7532 18.4577 35.6477 18.3523C35.5423 18.2468 35.3992 18.1875 35.25 18.1875Z" fill="#161722"/>
<path d="M18.3977 22.8523C18.3058 22.7603 18.1848 22.7031 18.0554 22.6902C17.926 22.6774 17.7962 22.7098 17.688 22.782C17.644 22.8113 16.6427 23.4916 16.4646 24.669L15.5625 23.767V21C15.5625 19.869 15.0525 18.9911 14.1266 18.5281C13.6975 18.3172 13.228 18.201 12.75 18.1875C12.6008 18.1875 12.4577 18.2468 12.3523 18.3523C12.2468 18.4577 12.1875 18.6008 12.1875 18.75V25.5C12.1875 25.6316 12.2336 25.759 12.3179 25.8601L15.9375 30.2037V35.25C15.9375 35.3992 15.9968 35.5423 16.1023 35.6477C16.2077 35.7532 16.3508 35.8125 16.5 35.8125C16.6492 35.8125 16.7923 35.7532 16.8977 35.6477C17.0032 35.5423 17.0625 35.3992 17.0625 35.25V30C17.0625 29.8684 17.0164 29.741 16.9321 29.6399L13.3125 25.2963V19.4114C13.4194 19.4436 13.5234 19.4848 13.6234 19.5344C14.1712 19.8083 14.4375 20.2875 14.4375 21V24C14.4375 24.1492 14.4968 24.2922 14.6023 24.3977L17.6023 27.3977L19.8523 29.6477C19.958 29.7518 20.1007 29.8099 20.2491 29.8093C20.3974 29.8087 20.5396 29.7494 20.6445 29.6445C20.7494 29.5396 20.8087 29.3974 20.8093 29.2491C20.8099 29.1007 20.7518 28.958 20.6477 28.8523L18.3977 26.6023C17.7986 26.0031 17.5194 25.4338 17.568 24.9101C17.6024 24.5387 17.7982 24.2341 17.9805 24.0257L21.9375 27.983V35.25C21.9375 35.3992 21.9968 35.5423 22.1023 35.6477C22.2077 35.7532 22.3508 35.8125 22.5 35.8125C22.6492 35.8125 22.7923 35.7532 22.8977 35.6477C23.0032 35.5423 23.0625 35.3992 23.0625 35.25V27.75C23.0625 27.6008 23.0032 27.4578 22.8977 27.3523L18.3977 22.8523Z" fill="#161722"/>
<path d="M21 17.0625H22.3125V22.5C22.3125 22.6492 22.3718 22.7923 22.4773 22.8977C22.5827 23.0032 22.7258 23.0625 22.875 23.0625H25.125C25.2742 23.0625 25.4173 23.0032 25.5227 22.8977C25.6282 22.7923 25.6875 22.6492 25.6875 22.5V17.0625H27C27.1492 17.0625 27.2923 17.0032 27.3977 16.8977C27.5032 16.7923 27.5625 16.6492 27.5625 16.5V15C27.5625 14.8508 27.5032 14.7077 27.3977 14.6023C27.2923 14.4968 27.1492 14.4375 27 14.4375H25.6875V12.75C25.6875 12.6008 25.6282 12.4577 25.5227 12.3523C25.4173 12.2468 25.2742 12.1875 25.125 12.1875H22.875C22.7258 12.1875 22.5827 12.2468 22.4773 12.3523C22.3718 12.4577 22.3125 12.6008 22.3125 12.75V14.4375H21C20.8508 14.4375 20.7077 14.4968 20.6023 14.6023C20.4968 14.7077 20.4375 14.8508 20.4375 15V16.5C20.4375 16.6492 20.4968 16.7923 20.6023 16.8977C20.7077 17.0032 20.8508 17.0625 21 17.0625ZM21.5625 15.5625H22.875C23.0242 15.5625 23.1673 15.5032 23.2727 15.3977C23.3782 15.2923 23.4375 15.1492 23.4375 15V13.3125H24.5625V15C24.5625 15.1492 24.6218 15.2923 24.7273 15.3977C24.8327 15.5032 24.9758 15.5625 25.125 15.5625H26.4375V15.9375H25.125C24.9758 15.9375 24.8327 15.9968 24.7273 16.1023C24.6218 16.2077 24.5625 16.3508 24.5625 16.5V21.9375H23.4375V16.5C23.4375 16.3508 23.3782 16.2077 23.2727 16.1023C23.1673 15.9968 23.0242 15.9375 22.875 15.9375H21.5625V15.5625Z" fill="#161722"/>
<path d="M29.4375 15.75C29.4375 15.8992 29.4968 16.0423 29.6023 16.1477C29.7077 16.2532 29.8508 16.3125 30 16.3125H30.75C30.8992 16.3125 31.0423 16.2532 31.1477 16.1477C31.2532 16.0423 31.3125 15.8992 31.3125 15.75C31.3125 15.6008 31.2532 15.4577 31.1477 15.3523C31.0423 15.2468 30.8992 15.1875 30.75 15.1875H30C29.8508 15.1875 29.7077 15.2468 29.6023 15.3523C29.4968 15.4577 29.4375 15.6008 29.4375 15.75Z" fill="#161722"/>
<path d="M29.2971 13.6877C29.3958 13.6877 29.4927 13.6617 29.5781 13.6123L30.2276 13.2373C30.2921 13.2006 30.3487 13.1516 30.3941 13.0929C30.4396 13.0343 30.473 12.9673 30.4924 12.8957C30.5119 12.8241 30.5169 12.7494 30.5074 12.6758C30.4978 12.6022 30.4738 12.5313 30.4367 12.467C30.3996 12.4028 30.3502 12.3465 30.2913 12.3015C30.2323 12.2564 30.1651 12.2234 30.0934 12.2045C30.0216 12.1855 29.9469 12.1809 29.8734 12.191C29.7999 12.201 29.7291 12.2255 29.6651 12.263L29.0156 12.638C28.9084 12.7 28.8245 12.7956 28.7772 12.91C28.7298 13.0244 28.7215 13.1513 28.7536 13.2709C28.7857 13.3905 28.8563 13.4962 28.9546 13.5715C29.0529 13.6469 29.1733 13.6877 29.2971 13.6877Z" fill="#161722"/>
<path d="M29.0156 18.8623L29.6651 19.2373C29.7942 19.3107 29.9471 19.3301 30.0905 19.2911C30.2338 19.2522 30.3559 19.1582 30.4302 19.0295C30.5045 18.9009 30.5249 18.7481 30.4869 18.6045C30.4489 18.4609 30.3557 18.3382 30.2276 18.263L29.5781 17.888C29.5141 17.8505 29.4433 17.826 29.3698 17.816C29.2963 17.8059 29.2215 17.8105 29.1498 17.8295C29.0781 17.8484 29.0108 17.8814 28.9519 17.9265C28.893 17.9715 28.8435 18.0278 28.8064 18.092C28.7694 18.1563 28.7453 18.2272 28.7358 18.3008C28.7262 18.3744 28.7313 18.4491 28.7507 18.5207C28.7702 18.5923 28.8036 18.6593 28.849 18.7179C28.8945 18.7766 28.9511 18.8256 29.0156 18.8623Z" fill="#161722"/>
<path d="M17.25 16.3125H18C18.1492 16.3125 18.2923 16.2532 18.3977 16.1477C18.5032 16.0423 18.5625 15.8992 18.5625 15.75C18.5625 15.6008 18.5032 15.4577 18.3977 15.3523C18.2923 15.2468 18.1492 15.1875 18 15.1875H17.25C17.1008 15.1875 16.9577 15.2468 16.8523 15.3523C16.7468 15.4577 16.6875 15.6008 16.6875 15.75C16.6875 15.8992 16.7468 16.0423 16.8523 16.1477C16.9577 16.2532 17.1008 16.3125 17.25 16.3125Z" fill="#161722"/>
<path d="M17.7726 13.2372L18.4221 13.6122C18.4861 13.6497 18.5569 13.6742 18.6304 13.6843C18.7039 13.6943 18.7787 13.6897 18.8504 13.6708C18.9221 13.6518 18.9894 13.6188 19.0483 13.5738C19.1072 13.5287 19.1567 13.4725 19.1938 13.4082C19.2309 13.344 19.2549 13.273 19.2644 13.1995C19.274 13.1259 19.2689 13.0512 19.2495 12.9796C19.23 12.908 19.1966 12.8409 19.1512 12.7823C19.1057 12.7237 19.0491 12.6746 18.9846 12.638L18.3351 12.263C18.206 12.1895 18.0531 12.1702 17.9098 12.2091C17.7664 12.248 17.6443 12.3421 17.57 12.4707C17.4957 12.5993 17.4753 12.7521 17.5133 12.8957C17.5513 13.0393 17.6445 13.1621 17.7726 13.2372Z" fill="#161722"/>
<path d="M18.4221 17.888L17.7726 18.263C17.7082 18.2997 17.6516 18.3488 17.6061 18.4074C17.5607 18.466 17.5272 18.5331 17.5078 18.6046C17.4884 18.6762 17.4833 18.751 17.4929 18.8245C17.5024 18.8981 17.5264 18.969 17.5635 19.0333C17.6006 19.0975 17.65 19.1538 17.709 19.1989C17.7679 19.2439 17.8352 19.2769 17.9069 19.2958C17.9786 19.3148 18.0534 19.3194 18.1269 19.3093C18.2004 19.2993 18.2711 19.2748 18.3351 19.2373L18.9846 18.8623C19.0491 18.8256 19.1057 18.7766 19.1512 18.7179C19.1966 18.6593 19.23 18.5923 19.2495 18.5207C19.2689 18.4491 19.274 18.3744 19.2644 18.3008C19.2549 18.2272 19.2308 18.1563 19.1938 18.092C19.1567 18.0278 19.1072 17.9715 19.0483 17.9265C18.9894 17.8814 18.9221 17.8484 18.8504 17.8295C18.7787 17.8105 18.7039 17.8059 18.6304 17.816C18.5569 17.826 18.4861 17.8505 18.4221 17.888Z" fill="#161722"/>
</g>
<defs>
<clipPath id="clip0_182_2">
<rect width="24" height="24" fill="white" transform="translate(12 12)"/>
</clipPath>
</defs>
</svg>
